<?xml version="1.0" encoding="UTF-8" standalone="no"?>
<svg width="139px" height="129px" viewBox="0 0 139 129" version="1.1" xmlns="http://www.w3.org/2000/svg" xmlns:xlink="http://www.w3.org/1999/xlink" xmlns:sketch="http://www.bohemiancoding.com/sketch/ns">
    <!-- Generator: Sketch 3.3.2 (12043) - http://www.bohemiancoding.com/sketch -->
    <title>Slice 1</title>
    <desc>Created with Sketch.</desc>
    <defs></defs>
    <g id="Page-1" stroke="none" stroke-width="1" fill="none" fill-rule="evenodd" sketch:type="MSPage">
        <path d="M2.07519531,63.1035156 C2.78841009,61.9195836 1.67318522,60.2794375 2.07519531,58.9570312 C2.46098999,57.6879654 4.15467734,56.9941879 4.33203125,55.6796875 C4.84580347,51.8717435 5.77079768,43.9858761 6.07226563,40.1552734 C6.12296933,39.5110067 2.30828068,29.3438672 2.35351563,28.7001953 C3.25976563,15.8046875 11.2871094,36.7734375 9.25976563,53.1728516 C8.84218546,56.5507049 5.94814601,72.7347388 15.1103517,65.6621094 C6.51624023,51.0020682 17.3947849,40.6604426 21.3701172,23.1699219 C23.1832496,15.1925687 10.0806773,8.22550273 16.4228516,1.50976562 L18.5507813,9.43359375 C40.1304022,27.0880302 18.5086038,30.4945051 15.1103516,48.8427734 C14.3540262,52.9264197 18.5507813,60.9609375 21.5341797,61.5927734 C33.9250405,50.8479215 21.9417555,55.2334562 25.9570313,39.9160156 C26.6241579,37.3710665 31.2084089,36.0928663 32.8154297,34.0097656 C33.8763937,32.634491 32.2546674,28.9094965 33.9882813,28.8017578 C35.7173673,28.6943005 35.5426655,32.3576997 34.9882813,33.9990234 C33.9359519,37.114576 28.5755056,39.47219 29.3007813,42.6796875 C30.3712905,47.4139641 36.1695892,49.708685 38.5029297,53.9648437 C39.4352145,55.6653896 39.1892893,57.910161 38.6757813,59.7802734 C38.0768169,61.9616035 33.7108434,64.0434634 35.2910156,65.6621094 C36.8174316,67.2256903 39.0827368,63.2785499 40.3603516,61.5058594 C41.6673308,59.6924257 42.7716383,57.4911135 42.7910156,55.2558594 C42.8314261,50.5943488 37.9870713,48.0835709 38.5341797,43.4541016 C38.8063709,41.1508999 38.4600397,39.4026821 39.0478516,37.1591797 C39.6724112,34.7754222 44.7030124,26.5620267 43.8320313,28.8671875 C42.180747,33.2375183 41.4335769,38.2809236 42.5302734,42.8222656 C43.1883896,45.5474778 47.3732519,46.1199319 48.6064453,48.6376953 C50.1419427,51.7726612 49.1402878,55.7062453 50.4296875,58.9501953 C50.9239444,60.1936768 52.5734764,62.1274041 53.6552734,61.3398437 C54.9850767,60.3717321 54.0182517,57.9757558 53.9160156,56.4121094 C53.2626953,46.4199219 60.5644531,58.2597656 55.2626953,39.6171875 C53.3834641,33.0092443 57.8311746,35.4945495 59.2978516,29.0683594 C60.0929174,25.5848081 55.1484375,14.0859375 58.3427734,18.3916016 C61.5371094,22.6972656 62.0859375,25.2421875 61.6035156,30.7080078 L58.0859375,36.2216797 C57.5444505,38.0312763 57.4756517,40.3207684 58.5644531,41.8642578 C60.5028778,44.6121767 61.9840368,43.7174623 63.9853516,46.4199219 C67.1656169,50.7143681 68.7942581,53.1265838 69.7939453,58.2597656 C72.1240234,67.0478516 88.8312225,67.9785156 89.4326172,54.8427734 C90.0633433,41.06637 85.1645738,61.5546012 80.2734375,42.3398437 C77.24325,30.4357966 91.1814835,42.8428387 84.1796875,20.4648438 C83.506342,18.3128069 89.5861859,25.1373644 90.4394531,27.2246094 C91.6132736,30.0959851 88.4351249,32.0091843 89.9951172,34.6904297 C90.3442934,35.2905783 90.4228549,36.226498 89.9951172,36.7734375 C88.5429717,38.6302662 86.0850063,39.5533637 84.7001953,41.4609375 C84.2572114,42.0711468 84.5207658,43.0957668 84.9609375,43.7080078 C86.874129,46.3690932 90.1464393,48.0409406 91.5576172,50.9990234 C92.9008139,53.8146056 91.8825751,57.304232 92.8603516,60.2666016 C93.0800963,60.9323621 94.1839193,60.7294922 94.8457031,60.9609375 C113.283989,63.479829 91.408705,47.2885714 102.213867,43.4267578 C105.923659,42.1008615 103.713762,64.5655321 108.064453,62.9267578 C112.425245,61.2841792 106.581097,54.1705473 108.821289,51.0751953 C109.231044,50.5090219 111.15067,44.3793266 111.821289,44.9785156 C114.370117,47.2558594 113.141559,61.9630509 116.370117,54.9365234 C118.059578,41.6565774 115.743085,41.3447561 110.293945,30.2949219 C102.752604,15.002495 120.105656,19.2841532 117.408203,14.9365234 C111.733278,5.78994205 121.990525,13.0914922 120.709961,16.2324219 C119.198411,19.9399071 108.370594,23.1421204 114.894531,28.2978516 C131.550781,41.4609375 116.370117,34.6904297 125.484375,55.7285156 C126.180576,57.3355282 124.069986,64.7652995 125.484374,65.6621094 C137.337611,64.3717692 123.827861,50.8167609 131.376953,48.2558594 C133.097646,47.6721436 130.706964,52.0949159 131.550781,53.7041016 C132.296018,55.1252901 134.946903,54.8426029 135.599609,56.3085937 C136.479421,58.2846687 134.562809,60.8994348 135.599609,62.7978516 C136.24493,63.9794566 137.965495,65.4052734 139.287109,65.6621094 L139.287109,130.713308 L-0.688476529,130.71331 L-0.688476562,65.6621094 C1.20133409,65.2418877 1.52164498,64.0224057 2.07519531,63.1035156 Z" id="Path-3" fill="#037600" sketch:type="MSShapeGroup"></path>
    </g>
</svg>